<svg xmlns="http://www.w3.org/2000/svg" version="1.1" xmlns:xlink="http://www.w3.org/1999/xlink" xmlns:svgjs="http://svgjs.com/svgjs" width="327" height="462" preserveAspectRatio="none" viewBox="0 0 327 462"><g mask="url(&quot;#SvgjsMask2949&quot;)" fill="none"><rect width="327" height="462" x="0" y="0" fill="url(#SvgjsLinearGradient2950)"></rect><path d="M327 0L268.35 0L327 229.27z" fill="rgba(255, 255, 255, .1)"></path><path d="M268.35 0L327 229.27L327 293.18L220.79000000000002 0z" fill="rgba(255, 255, 255, .075)"></path><path d="M220.79 0L327 293.18L327 326.96000000000004L177 0z" fill="rgba(255, 255, 255, .05)"></path><path d="M177 0L327 326.96000000000004L327 348.57000000000005L115.57 0z" fill="rgba(255, 255, 255, .025)"></path><path d="M0 462L28.19 462L0 284.13z" fill="rgba(0, 0, 0, .1)"></path><path d="M0 284.13L28.19 462L115.63 462L0 247.18z" fill="rgba(0, 0, 0, .075)"></path><path d="M0 247.18L115.63 462L232.91 462L0 202.42000000000002z" fill="rgba(0, 0, 0, .05)"></path><path d="M0 202.42000000000002L232.91 462L240.28 462L0 115.51000000000002z" fill="rgba(0, 0, 0, .025)"></path></g><defs><mask id="SvgjsMask2949"><rect width="327" height="462" fill="#ffffff"></rect></mask><linearGradient x1="50%" y1="100%" x2="50%" y2="0%" gradientUnits="userSpaceOnUse" id="SvgjsLinearGradient2950"><stop stop-color="#0e2a47" offset="0"></stop><stop stop-color="rgba(149, 209, 239, 1)" offset="1"></stop></linearGradient></defs></svg>