<svg xmlns="http://www.w3.org/2000/svg" version="1.1" xmlns:xlink="http://www.w3.org/1999/xlink" xmlns:svgjs="http://svgjs.com/svgjs" width="327" height="462" preserveAspectRatio="none" viewBox="0 0 327 462"><g mask="url(&quot;#SvgjsMask2835&quot;)" fill="none"><rect width="327" height="462" x="0" y="0" fill="url(#SvgjsRadialGradient2836)"></rect><path d="M327 0L276.81 0L327 204.49z" fill="rgba(255, 255, 255, .1)"></path><path d="M276.81 0L327 204.49L327 253.04000000000002L175.05 0z" fill="rgba(255, 255, 255, .075)"></path><path d="M175.05 0L327 253.04000000000002L327 348.08000000000004L127.78 0z" fill="rgba(255, 255, 255, .05)"></path><path d="M127.78 0L327 348.08000000000004L327 373.42L72.99000000000001 0z" fill="rgba(255, 255, 255, .025)"></path><path d="M0 462L49.95 462L0 240.32z" fill="rgba(0, 0, 0, .1)"></path><path d="M0 240.32L49.95 462L111.73 462L0 141.24z" fill="rgba(0, 0, 0, .075)"></path><path d="M0 141.24L111.73 462L236.32999999999998 462L0 91.27000000000001z" fill="rgba(0, 0, 0, .05)"></path><path d="M0 91.26999999999998L236.32999999999998 462L271.06 462L0 35.219999999999985z" fill="rgba(0, 0, 0, .025)"></path></g><defs><mask id="SvgjsMask2835"><rect width="327" height="462" fill="#ffffff"></rect></mask><radialGradient cx="50%" cy="50%" r="283.01" gradientUnits="userSpaceOnUse" id="SvgjsRadialGradient2836"><stop stop-color="rgba(44, 114, 184, 1)" offset="0"></stop><stop stop-color="rgba(49, 173, 225, 1)" offset="1"></stop></radialGradient></defs></svg>