<svg xmlns="http://www.w3.org/2000/svg" version="1.1" xmlns:xlink="http://www.w3.org/1999/xlink" xmlns:svgjs="http://svgjs.com/svgjs" width="327" height="462" preserveAspectRatio="none" viewBox="0 0 327 462"><g mask="url(&quot;#SvgjsMask1026&quot;)" fill="none"><rect width="327" height="462" x="0" y="0" fill="url(#SvgjsRadialGradient1027)"></rect><path d="M0 0L93.48 0L0 86.33z" fill="rgba(255, 255, 255, .1)"></path><path d="M0 86.33L93.48 0L203.85000000000002 0L0 255.45z" fill="rgba(255, 255, 255, .075)"></path><path d="M0 255.45L203.85000000000002 0L279.33000000000004 0L0 343.99z" fill="rgba(255, 255, 255, .05)"></path><path d="M0 343.99L279.33000000000004 0L310.80000000000007 0L0 424.2z" fill="rgba(255, 255, 255, .025)"></path><path d="M327 462L295.61 462L327 336.84000000000003z" fill="rgba(0, 0, 0, .1)"></path><path d="M327 336.84000000000003L295.61 462L159.15 462L327 227.89000000000004z" fill="rgba(0, 0, 0, .075)"></path><path d="M327 227.89L159.14999999999998 462L100.09999999999998 462L327 104.58999999999999z" fill="rgba(0, 0, 0, .05)"></path><path d="M327 104.58999999999997L100.09999999999997 462L61.40999999999997 462L327 33.90999999999997z" fill="rgba(0, 0, 0, .025)"></path></g><defs><mask id="SvgjsMask1026"><rect width="327" height="462" fill="#ffffff"></rect></mask><radialGradient cx="50%" cy="50%" r="283.01" gradientUnits="userSpaceOnUse" id="SvgjsRadialGradient1027"><stop stop-color="#0e2a47" offset="0"></stop><stop stop-color="rgba(5, 7, 97, 1)" offset="1"></stop></radialGradient></defs></svg>